<?xml version="1.0" encoding="UTF-8" standalone="no"?>
<!-- Created with Inkscape (http://www.inkscape.org/) -->

<svg
   width="13.409954mm"
   height="13.45021mm"
   viewBox="0 0 13.409954 13.45021"
   version="1.1"
   id="svg5"
   xml:space="preserve"
   inkscape:export-filename="jinjang.svg"
   inkscape:export-xdpi="96"
   inkscape:export-ydpi="96"
   xmlns:inkscape="http://www.inkscape.org/namespaces/inkscape"
   xmlns:sodipodi="http://sodipodi.sourceforge.net/DTD/sodipodi-0.dtd"
   xmlns="http://www.w3.org/2000/svg"
   xmlns:svg="http://www.w3.org/2000/svg"><sodipodi:namedview
     id="namedview7"
     pagecolor="#ffffff"
     bordercolor="#000000"
     borderopacity="0.25"
     inkscape:showpageshadow="2"
     inkscape:pageopacity="0.0"
     inkscape:pagecheckerboard="0"
     inkscape:deskcolor="#d1d1d1"
     inkscape:document-units="mm"
     showgrid="false" /><defs
     id="defs2" /><g
     inkscape:label="Layer 1"
     inkscape:groupmode="layer"
     id="layer1"
     transform="translate(-54.116346,-10.216355)"><path
       style="fill:#020202;stroke:none;stroke-width:0.0275452"
       d="m 60.500737,10.242217 c -0.387065,0.05082 -0.773085,0.06222 -1.156899,0.150477 -1.347402,0.309823 -2.591069,1.013155 -3.521111,2.041451 -2.699247,2.984414 -2.128857,7.856834 1.234858,10.099317 0.627011,0.417998 1.334015,0.739286 2.065891,0.922269 0.839578,0.209867 1.704333,0.266749 2.561705,0.154006 3.234911,-0.425354 5.75921,-3.228961 5.839174,-6.492905 0.07572,-3.089637 -2.064789,-5.925252 -5.067907,-6.676228 -0.609879,-0.152512 -1.326688,-0.280977 -1.955711,-0.198387 m -0.110181,13.210016 c -0.127562,0.05302 -0.305779,0.0069 -0.440724,-0.01171 -0.345086,-0.04754 -0.68436,-0.120428 -1.019173,-0.21667 -1.559637,-0.448271 -2.913193,-1.526309 -3.746149,-2.911778 -1.735625,-2.886905 -0.914196,-6.774554 1.845529,-8.711983 0.658496,-0.462297 1.395717,-0.799082 2.176072,-0.99422 0.696206,-0.174097 1.490996,-0.275842 2.203618,-0.142318 0.394971,0.074 0.791512,0.218213 1.129354,0.437556 1.924915,1.249726 2.052175,4.093525 0.165272,5.45145 -0.410727,0.29556 -0.903814,0.492563 -1.404806,0.563602 -0.415052,0.05884 -0.827487,0.02832 -1.239535,0.124505 -0.789199,0.184277 -1.456123,0.667062 -1.931334,1.315697 -1.122027,1.53146 -0.564759,3.718715 1.022342,4.677068 0.359657,0.217194 0.81352,0.409956 1.239534,0.418798 m 0.275452,-10.620335 c -1.13624,0.182872 -0.797489,1.884423 0.330543,1.686621 1.065229,-0.186784 0.728847,-1.857126 -0.330543,-1.686621 m -0.05509,6.552705 c 1.127647,-0.197748 1.462818,1.504382 0.330543,1.686621 -1.058287,0.17034 -1.395027,-1.499975 -0.330543,-1.686621 z"
       id="path302" /></g></svg>
