<?xml version="1.0" encoding="UTF-8" standalone="no"?>
<!-- Created with Inkscape (http://www.inkscape.org/) -->

<svg
   width="91.843163mm"
   height="5.536087mm"
   viewBox="0 0 91.843163 5.536087"
   version="1.1"
   id="svg349"
   xml:space="preserve"
   xmlns:inkscape="http://www.inkscape.org/namespaces/inkscape"
   xmlns:sodipodi="http://sodipodi.sourceforge.net/DTD/sodipodi-0.dtd"
   xmlns="http://www.w3.org/2000/svg"
   xmlns:svg="http://www.w3.org/2000/svg"><sodipodi:namedview
     id="namedview351"
     pagecolor="#ffffff"
     bordercolor="#000000"
     borderopacity="0.25"
     inkscape:showpageshadow="2"
     inkscape:pageopacity="0.0"
     inkscape:pagecheckerboard="0"
     inkscape:deskcolor="#d1d1d1"
     inkscape:document-units="mm"
     showgrid="false" /><defs
     id="defs346"><marker
       style="overflow:visible"
       id="Club"
       refX="-4"
       refY="0"
       orient="auto-start-reverse"
       inkscape:stockid="Club"
       markerWidth="8.21"
       markerHeight="7.5508499"
       viewBox="0 0 8.2100422 7.5508885"
       inkscape:isstock="true"
       inkscape:collect="always"
       preserveAspectRatio="xMidYMid"><path
         transform="scale(-0.5)"
         style="fill:context-stroke;fill-rule:evenodd;stroke:context-stroke"
         d="m -1.5971367,-7.0977635 c -1.8892507,0 -3.426382,1.5371314 -3.426382,3.4263822 0,0.6566798 0.2383531,1.2269257 0.5594092,1.7481542 -0.038751,0.032111 -0.079672,0.058463 -0.1165436,0.093235 -0.6224234,-0.8549928 -1.5893983,-1.4451409 -2.7271199,-1.4451409 -1.8892515,-1e-7 -3.426382,1.5371314 -3.426382,3.42638214 0,1.88925076 1.5371305,3.42638216 3.426382,3.42638216 0.9934462,0 1.868619,-0.4420611 2.4940326,-1.1188187 -0.124687,0.3548915 -0.2097783,0.7214874 -0.2097783,1.1188187 0,1.8892506 1.5371313,3.4263822 3.426382,3.4263822 1.88925064,0 3.4263821,-1.5371316 3.4263821,-3.4263822 0,-0.7933959 -0.3155586,-1.4938285 -0.7691878,-2.0744763 C 2.4152718,1.7663868 3.7718375,2.2973711 4.7661444,3.8340272 4.0279463,3.0958289 3.5540908,1.7534117 3.5540908,-0.05852936 l -0.6293354,-0.04661745 0.5827179,-0.0233087 c 0,-1.81194109 0.4505466,-3.15435829 1.188745,-3.89255659 -0.9590906,1.4822308 -2.2571634,2.0263625 -3.5662345,2.3075635 0.4041964,-0.5619092 0.6992616,-1.213407 0.6992616,-1.9579327 0,-1.8892506 -1.53713146,-3.4263822 -3.4263821,-3.4263822 z"
         id="path1406" /></marker><marker
       style="overflow:visible"
       id="Arrow5-6"
       refX="-4"
       refY="0"
       orient="auto-start-reverse"
       inkscape:stockid="Arrow5"
       markerWidth="5.8874264"
       markerHeight="6.6094756"
       viewBox="0 0 5.8874262 6.6094758"
       inkscape:isstock="true"
       inkscape:collect="always"
       preserveAspectRatio="xMidYMid"><path
         transform="scale(0.5)"
         style="fill:context-stroke;fill-rule:evenodd;stroke:context-stroke;stroke-width:1pt"
         d="m 6,0 c -3,1 -7,3 -9,5 0,0 0,-4 2,-5 -2,-1 -2,-5 -2,-5 2,2 6,4 9,5 z"
         id="path8893-0" /></marker><marker
       style="overflow:visible"
       id="Club-9"
       refX="-4"
       refY="0"
       orient="auto-start-reverse"
       inkscape:stockid="Club"
       markerWidth="8.21"
       markerHeight="7.5508499"
       viewBox="0 0 8.2100422 7.5508885"
       inkscape:isstock="true"
       inkscape:collect="always"
       preserveAspectRatio="xMidYMid"><path
         transform="scale(-0.5)"
         style="fill:context-stroke;fill-rule:evenodd;stroke:context-stroke"
         d="m -1.5971367,-7.0977635 c -1.8892507,0 -3.426382,1.5371314 -3.426382,3.4263822 0,0.6566798 0.2383531,1.2269257 0.5594092,1.7481542 -0.038751,0.032111 -0.079672,0.058463 -0.1165436,0.093235 -0.6224234,-0.8549928 -1.5893983,-1.4451409 -2.7271199,-1.4451409 -1.8892515,-1e-7 -3.426382,1.5371314 -3.426382,3.42638214 0,1.88925076 1.5371305,3.42638216 3.426382,3.42638216 0.9934462,0 1.868619,-0.4420611 2.4940326,-1.1188187 -0.124687,0.3548915 -0.2097783,0.7214874 -0.2097783,1.1188187 0,1.8892506 1.5371313,3.4263822 3.426382,3.4263822 1.88925064,0 3.4263821,-1.5371316 3.4263821,-3.4263822 0,-0.7933959 -0.3155586,-1.4938285 -0.7691878,-2.0744763 C 2.4152718,1.7663868 3.7718375,2.2973711 4.7661444,3.8340272 4.0279463,3.0958289 3.5540908,1.7534117 3.5540908,-0.05852936 l -0.6293354,-0.04661745 0.5827179,-0.0233087 c 0,-1.81194109 0.4505466,-3.15435829 1.188745,-3.89255659 -0.9590906,1.4822308 -2.2571634,2.0263625 -3.5662345,2.3075635 0.4041964,-0.5619092 0.6992616,-1.213407 0.6992616,-1.9579327 0,-1.8892506 -1.53713146,-3.4263822 -3.4263821,-3.4263822 z"
         id="path1406-6" /></marker><marker
       style="overflow:visible"
       id="Arrow5-6-5"
       refX="-4"
       refY="0"
       orient="auto-start-reverse"
       inkscape:stockid="Arrow5"
       markerWidth="5.8874264"
       markerHeight="6.6094756"
       viewBox="0 0 5.8874262 6.6094758"
       inkscape:isstock="true"
       inkscape:collect="always"
       preserveAspectRatio="xMidYMid"><path
         transform="scale(0.5)"
         style="fill:context-stroke;fill-rule:evenodd;stroke:context-stroke;stroke-width:1pt"
         d="m 6,0 c -3,1 -7,3 -9,5 0,0 0,-4 2,-5 -2,-1 -2,-5 -2,-5 2,2 6,4 9,5 z"
         id="path8893-0-9" /></marker></defs><g
     inkscape:label="Layer 1"
     inkscape:groupmode="layer"
     id="layer1"
     transform="translate(-60.267435,-117.25563)"><path
       style="fill:#000000;fill-opacity:1;stroke:#000000;stroke-width:0.0808687;stroke-dasharray:none;stroke-dashoffset:0;stroke-opacity:1"
       d="m 104.89426,122.74904 c -0.28128,-0.0141 -0.47103,-0.11888 -0.63437,-0.35025 -0.027,-0.0383 -0.0507,-0.0696 -0.0526,-0.0696 -0.0324,-0.0429 -0.0541,-0.09 -0.0642,-0.14173 1.7e-4,-0.11994 0.0294,-0.19948 0.10073,-0.27458 0.0592,-0.0623 0.13378,-0.10414 0.354,-0.19871 0.0768,-0.033 0.077,-0.0333 0.0671,-0.1081 -0.007,-0.0579 -0.006,-0.15795 0.004,-0.20919 l 0.004,-0.0198 -0.0455,0.0193 c -0.0357,0.0151 -0.0571,0.0199 -0.099,0.0221 -0.0629,0.003 -0.09,-0.004 -0.17868,-0.0484 -0.1183,-0.059 -0.19895,-0.0927 -0.22189,-0.0926 -0.0218,1.1e-4 -0.0205,0.002 0.0331,0.0313 0.0972,0.0544 0.13218,0.10161 0.12521,0.16906 -0.005,0.0443 -0.0212,0.075 -0.0611,0.11245 -0.0546,0.0513 -0.0987,0.0732 -0.16821,0.0834 -0.0712,0.0104 -0.1418,-0.0112 -0.22974,-0.0703 -0.0236,-0.0159 -0.0442,-0.0276 -0.0456,-0.026 -0.006,0.006 0.056,0.0842 0.093,0.11772 0.0687,0.0623 0.14626,0.0917 0.27822,0.10558 0.0713,0.007 0.11294,0.0443 0.0899,0.0795 -0.0152,0.0232 -0.0826,0.0581 -0.1403,0.0727 -0.0741,0.0188 -0.18812,0.0149 -0.25395,-0.009 -0.0588,-0.0209 -0.0835,-0.0454 -0.0784,-0.0772 0.007,-0.045 0.0294,-0.0597 0.11549,-0.0772 l 0.0403,-0.008 -0.0496,-0.0272 c -0.0942,-0.0517 -0.21938,-0.13111 -0.23194,-0.14708 -0.007,-0.009 -0.0126,-0.02 -0.0126,-0.0248 0,-0.0187 0.019,-0.0442 0.0378,-0.0508 0.0294,-0.0103 0.091,-0.008 0.12772,0.005 0.0179,0.006 0.0325,0.0104 0.0325,0.009 0,-8.1e-4 -0.009,-0.0162 -0.0194,-0.0336 -0.0107,-0.0174 -0.0208,-0.0436 -0.0224,-0.0585 -0.007,-0.0653 0.0662,-0.0798 0.13441,-0.0266 0.0148,0.0116 0.0153,0.0116 0.0195,2.9e-4 0.002,-0.006 0.0104,-0.0421 0.0179,-0.0793 0.0138,-0.0683 0.0301,-0.11057 0.0446,-0.11583 0.004,-0.002 0.0175,8.1e-4 0.0292,0.006 0.0188,0.007 0.0239,0.007 0.0429,-0.002 0.0367,-0.0174 0.0929,-7.3e-4 0.24205,0.0716 0.14701,0.0714 0.1907,0.0852 0.23931,0.0754 0.075,-0.015 0.13249,-0.0599 0.18579,-0.14495 0.0984,-0.15695 0.20515,-0.32186 0.35715,-0.55188 0.092,-0.13929 0.17666,-0.27162 0.18802,-0.29408 0.0453,-0.0895 0.086,-0.25405 0.10081,-0.40752 0.003,-0.0367 0.009,-0.16419 0.0124,-0.28337 0.003,-0.11918 0.009,-0.23715 0.0128,-0.26216 0.0298,-0.20136 0.11908,-0.33346 0.28194,-0.417 0.0303,-0.0156 0.0984,-0.0442 0.15117,-0.0635 0.0528,-0.0193 0.13078,-0.0481 0.17335,-0.064 0.12635,-0.0471 0.19787,-0.10342 0.23748,-0.18704 0.0162,-0.0342 0.0194,-0.0492 0.0215,-0.0996 0.003,-0.0737 -0.009,-0.12369 -0.062,-0.2595 -0.0902,-0.23094 -0.11125,-0.31605 -0.11174,-0.45195 -4.5e-4,-0.12751 0.0226,-0.22754 0.0788,-0.34143 0.0345,-0.0698 0.0592,-0.10512 0.1058,-0.15106 0.0721,-0.071 0.16955,-0.10813 0.28369,-0.10796 0.0975,1.4e-4 0.18308,0.0266 0.24047,0.0743 0.0259,0.0215 0.0267,0.0237 0.0149,0.0398 -0.008,0.0108 -0.0105,0.01 -0.0479,-0.0155 -0.064,-0.0434 -0.12132,-0.0628 -0.19583,-0.0664 -0.0561,-0.002 -0.0691,-8.1e-4 -0.11615,0.0135 -0.10576,0.033 -0.19092,0.10988 -0.24989,0.22568 -0.0642,0.12609 -0.0868,0.24683 -0.0746,0.39869 0.008,0.0978 0.0235,0.1536 0.089,0.31682 0.0315,0.0785 0.0619,0.16106 0.0674,0.18336 0.0157,0.0627 0.0185,0.12608 0.008,0.18282 -0.0131,0.0722 -0.0357,0.11548 -0.0873,0.16737 -0.0525,0.0527 -0.1194,0.0876 -0.26981,0.14069 -0.17964,0.0634 -0.22925,0.0857 -0.30195,0.1358 -0.0836,0.0576 -0.146,0.13994 -0.17708,0.23359 -0.0181,0.0547 -0.0268,0.13098 -0.0315,0.2755 -0.0106,0.32575 -0.0141,0.37663 -0.035,0.5073 -0.0141,0.0879 -0.0455,0.20861 -0.0695,0.26659 -0.008,0.0205 -0.0143,0.0382 -0.0131,0.0394 0.002,8.1e-4 0.0239,-0.0175 0.0505,-0.0415 0.0691,-0.0626 0.10949,-0.0915 0.16594,-0.11851 0.0563,-0.027 0.0984,-0.0373 0.15285,-0.0373 h 0.0377 l -0.003,-0.0356 c -0.002,-0.0222 -0.026,-0.0982 -0.0635,-0.20277 -0.14758,-0.41117 -0.16041,-0.45716 -0.15986,-0.57267 7.3e-4,-0.13731 0.055,-0.23884 0.16257,-0.30392 0.0656,-0.0396 0.14128,-0.06 0.33186,-0.0892 0.26037,-0.0399 0.34136,-0.0796 0.39489,-0.19368 0.0167,-0.0356 0.0199,-0.0503 0.022,-0.1012 0.002,-0.0497 -2.9e-4,-0.0704 -0.0143,-0.12507 -0.0109,-0.0427 -0.0153,-0.0721 -0.0126,-0.0844 0.008,-0.0371 0.0281,-0.0151 0.0476,0.0524 0.0117,0.0408 0.0142,0.064 0.0141,0.13305 -1.2e-4,0.0728 -0.002,0.0883 -0.0145,0.11974 -0.0362,0.0909 -0.10313,0.15362 -0.19803,0.18548 -0.0621,0.0209 -0.0838,0.0253 -0.24843,0.051 -0.16107,0.0252 -0.21424,0.0383 -0.2786,0.0692 -0.0818,0.0393 -0.14669,0.11954 -0.16667,0.20624 -0.0201,0.0875 0.005,0.22639 0.0716,0.40019 0.10571,0.27439 0.12213,0.3232 0.1446,0.42957 0.0146,0.0694 0.0193,0.0818 0.0522,0.13867 0.0564,0.0974 0.0387,0.22682 -0.0409,0.30123 -0.0253,0.0236 -0.0341,0.038 -0.051,0.0836 -0.0527,0.14177 -0.12482,0.247 -0.27248,0.39775 -0.12649,0.12913 -0.24488,0.23103 -0.48649,0.41873 -0.11692,0.0908 -0.20608,0.16444 -0.20296,0.16757 8.1e-4,8.1e-4 0.0285,-0.005 0.0607,-0.0127 0.0323,-0.008 0.2018,-0.0416 0.37681,-0.0742 0.32166,-0.06 0.36459,-0.0703 0.42721,-0.10198 0.0455,-0.023 0.1047,-0.0673 0.10928,-0.0817 0.002,-0.006 5.8e-4,-0.0316 -0.003,-0.0564 -0.0113,-0.0746 0.006,-0.1547 0.0478,-0.22748 0.0302,-0.0521 0.0745,-0.10928 0.29909,-0.38695 0.0486,-0.0601 0.1013,-0.13868 0.12588,-0.18776 0.0328,-0.0653 0.0328,-0.0654 0.002,-0.079 -0.12618,-0.0568 -0.21814,-0.17771 -0.24939,-0.32795 -0.0129,-0.0622 -0.0133,-0.18556 -5.9e-4,-0.25661 0.0355,-0.19981 0.15332,-0.38101 0.30496,-0.46915 0.0486,-0.0282 0.10894,-0.051 0.17502,-0.0659 0.0356,-0.008 0.0515,-0.0154 0.0702,-0.0323 0.0705,-0.0637 0.16762,-0.11082 0.3171,-0.15389 0.25187,-0.0725 0.46146,-0.0906 0.58197,-0.0502 0.14447,0.0484 0.23355,0.16368 0.24948,0.32269 0.008,0.0828 -8.1e-4,0.17932 -0.0326,0.33335 -0.0351,0.17221 -0.0454,0.24436 -0.0505,0.35374 -0.005,0.0954 0.003,0.19691 0.0232,0.29599 0.0723,0.36296 0.35774,0.71741 0.77595,0.96351 0.10379,0.0611 0.16693,0.0821 0.24791,0.0828 0.0848,5.8e-4 0.14458,-0.0205 0.26003,-0.0915 0.0542,-0.0333 0.10914,-0.0575 0.16225,-0.0712 0.0143,-0.004 0.0277,-0.009 0.0298,-0.0127 0.009,-0.0142 -0.0434,-0.004 -0.115,0.0223 -0.0424,0.0156 -0.0965,0.0356 -0.12036,0.0444 -0.0366,0.0135 -0.0539,0.0161 -0.11145,0.0164 -0.0589,3e-4 -0.0727,-0.002 -0.10215,-0.0145 -0.0929,-0.0408 -0.14514,-0.0936 -0.31233,-0.31603 -0.31712,-0.42191 -0.39152,-0.54237 -0.45611,-0.73846 -0.0448,-0.13598 -0.0637,-0.27282 -0.0735,-0.53129 -0.007,-0.18417 -0.0136,-0.25237 -0.0346,-0.35758 -0.027,-0.13491 -0.07,-0.2195 -0.14787,-0.29065 -0.0679,-0.0621 -0.12834,-0.0909 -0.37993,-0.18152 -0.076,-0.0274 -0.15545,-0.0576 -0.17645,-0.067 -0.10491,-0.0474 -0.1734,-0.13344 -0.18997,-0.23871 -0.0143,-0.0907 0.0168,-0.19838 0.073,-0.25274 0.0202,-0.0195 0.0281,-0.0233 0.0454,-0.0217 0.0278,0.002 0.031,0.0192 0.006,0.0298 -0.0841,0.0349 -0.11953,0.20875 -0.0645,0.3172 0.0196,0.0388 0.0566,0.0791 0.0953,0.10394 0.0339,0.0218 0.0738,0.0378 0.23637,0.0949 0.0623,0.0219 0.13565,0.0487 0.16289,0.0596 0.2014,0.0801 0.32376,0.21202 0.37195,0.40108 0.0173,0.068 0.0245,0.14878 0.0366,0.41102 0.0119,0.2599 0.027,0.35864 0.0785,0.51423 0.0514,0.15536 0.11588,0.27012 0.28105,0.50044 0.23338,0.32542 0.28296,0.38789 0.36358,0.45817 0.0651,0.0568 0.10216,0.0782 0.15073,0.0872 0.0499,0.009 0.0825,0.002 0.2317,-0.054 0.0691,-0.0257 0.13459,-0.0483 0.14563,-0.0501 0.0139,-0.002 0.0275,8.1e-4 0.0445,0.0104 0.0234,0.0132 0.0252,0.0133 0.0444,0.003 0.0228,-0.0118 0.032,-0.007 0.0476,0.0229 0.007,0.0145 0.0453,0.16326 0.0456,0.17925 5e-5,0.002 0.0147,-0.006 0.0326,-0.0175 0.0283,-0.0189 0.0363,-0.0214 0.0619,-0.0192 0.0433,0.004 0.056,0.0179 0.0527,0.0582 -0.002,0.0213 -0.008,0.0408 -0.0196,0.0578 -0.009,0.0142 -0.0161,0.0266 -0.015,0.0277 8.1e-4,8.1e-4 0.0271,-0.003 0.0577,-0.01 0.064,-0.0137 0.088,-0.0115 0.11435,0.0108 0.0261,0.022 0.0252,0.0449 -0.003,0.0695 -0.031,0.0272 -0.12677,0.0823 -0.22154,0.12741 l -0.0819,0.039 0.0496,0.008 c 0.0442,0.007 0.0525,0.0112 0.0766,0.0337 0.0467,0.0437 0.0362,0.07 -0.0409,0.10216 -0.14637,0.0609 -0.23012,0.0493 -0.4896,-0.0683 -0.0691,-0.0314 -0.12697,-0.0558 -0.12845,-0.0543 -0.003,0.003 0.0893,0.10728 0.17843,0.20021 0.0774,0.0807 0.0921,0.10755 0.0961,0.17609 0.002,0.0353 0.007,0.0612 -0.011,0.0975 -0.0149,0.0312 -0.0266,0.0642 -0.0447,0.0937 -0.004,0.006 -0.0133,0.0172 -0.0133,0.0172 -0.0809,0.10512 -0.18282,0.17305 -0.33653,0.22437 -0.11181,0.0373 -0.16182,0.0442 -0.34907,0.048 -0.35552,0.007 -0.58283,-0.0292 -1.1042,-0.1775 -0.32187,-0.0915 -0.43451,-0.10731 -0.59728,-0.0836 -0.0925,0.0134 -0.18509,0.0387 -0.51775,0.14116 -0.43218,0.13311 -0.50131,0.15234 -0.63821,0.17749 -0.14547,0.0267 -0.30971,0.0374 -0.46071,0.0298 z m 0.26165,-0.0391 c 0.21211,-0.0225 0.31322,-0.0472 0.83108,-0.20337 0.45687,-0.13774 0.49678,-0.14654 0.66402,-0.14654 0.13595,0 0.2092,0.0136 0.45657,0.0845 0.43394,0.12442 0.60666,0.15969 0.87396,0.1785 0.0709,0.005 0.1492,0.0105 0.17389,0.0123 0.027,0.002 0.0449,8.1e-4 0.0449,-0.002 0,-0.007 -0.004,-0.008 -0.11763,-0.0251 -0.26375,-0.0396 -0.36431,-0.0937 -0.63911,-0.3436 -0.0501,-0.0456 -0.0983,-0.0847 -0.10706,-0.0869 -0.01,-0.002 -0.0501,0.004 -0.10073,0.0159 -0.1779,0.0415 -0.23704,0.0522 -0.44682,0.0809 -0.27973,0.0382 -0.4879,0.094 -0.96913,0.25962 -0.33393,0.11495 -0.41855,0.13259 -0.63459,0.13232 -0.20954,-2.9e-4 -0.40911,-0.026 -0.54885,-0.0708 -0.06,-0.0192 -0.11368,-0.041 -0.20161,-0.0819 -0.0263,-0.0122 -0.0492,-0.02 -0.0509,-0.0172 -0.004,0.006 0.0961,0.0824 0.15396,0.11718 0.1492,0.0899 0.36591,0.12395 0.61804,0.0972 z m 0.18721,-0.0866 c 0.0341,-0.005 0.0992,-0.016 0.14477,-0.0247 0.0455,-0.009 0.0841,-0.0158 0.0855,-0.0158 0.002,0 8.1e-4,-0.002 -8.1e-4,-0.006 -0.002,-0.003 -0.0347,-0.006 -0.0762,-0.006 -0.21253,-1.1e-4 -0.39847,-0.0687 -0.505,-0.18649 -0.0839,-0.0927 -0.0877,-0.17669 -0.0112,-0.24822 0.038,-0.0355 0.0734,-0.0558 0.13431,-0.0769 0.0452,-0.0157 0.0571,-0.0171 0.1362,-0.0168 0.0824,2.9e-4 0.0921,0.002 0.19502,0.0285 0.0596,0.0155 0.17898,0.0494 0.26531,0.0753 0.25334,0.076 0.35904,0.0952 0.48734,0.0884 0.0734,-0.004 0.0955,-0.002 0.0955,0.0113 0,0.0144 -0.0619,0.0239 -0.15477,0.0239 -0.12403,-4e-5 -0.16694,-0.009 -0.43338,-0.0891 -0.34996,-0.10537 -0.43337,-0.12007 -0.54583,-0.0962 -0.10862,0.023 -0.19711,0.0964 -0.19711,0.16345 0,0.0651 0.0808,0.15568 0.18573,0.20824 0.10388,0.052 0.22333,0.0789 0.3529,0.0792 0.16061,4.4e-4 0.25792,-0.0212 0.57819,-0.12846 0.32851,-0.11005 0.34974,-0.11507 0.73433,-0.17327 0.14812,-0.0224 0.31249,-0.0505 0.36527,-0.0626 0.0528,-0.012 0.10362,-0.0234 0.11299,-0.0254 0.009,-0.002 0.0171,-0.006 0.0171,-0.009 0,-0.006 -0.11624,-0.11424 -0.17335,-0.16027 -0.0525,-0.0423 -0.15052,-0.0935 -0.2105,-0.10987 -0.0469,-0.0128 -0.196,-0.015 -0.22425,-0.003 -0.0125,0.005 -0.0243,0.0219 -0.0457,0.0644 -0.07,0.1393 -0.20891,0.22359 -0.36772,0.223 -0.0965,-2.9e-4 -0.13037,-0.0113 -0.44172,-0.14339 -0.25306,-0.10732 -0.29262,-0.11568 -0.53562,-0.1132 -0.19526,0.002 -0.22987,-0.002 -0.25429,-0.0336 -0.0178,-0.0226 -0.0169,-0.0583 0.002,-0.0807 0.0453,-0.0534 0.18906,-0.10433 0.35663,-0.12631 0.0323,-0.004 0.102,-0.008 0.15477,-0.008 0.12604,3e-5 0.15895,0.009 0.3174,0.0866 0.17511,0.0857 0.1882,0.0859 0.31458,0.004 0.13205,-0.0854 0.15768,-0.094 0.20737,-0.07 0.0509,0.0247 0.078,0.0897 0.0666,0.16024 -0.003,0.0208 -0.006,0.0386 -0.004,0.0396 0.004,0.004 0.15441,-0.0248 0.16767,-0.0319 0.009,-0.005 0.0171,-0.0191 0.0237,-0.0429 0.0239,-0.0855 0.0488,-0.12906 0.084,-0.1473 0.0298,-0.0155 0.0796,-0.0125 0.12412,0.007 0.0207,0.009 0.0687,0.039 0.10654,0.0659 0.0933,0.0665 0.11273,0.0748 0.17407,0.0748 0.0467,3e-5 0.0555,-0.002 0.15479,-0.0419 0.20804,-0.0829 0.26794,-0.0962 0.37858,-0.0841 0.0674,0.007 0.16806,0.0379 0.22499,0.0683 0.0486,0.0259 0.0985,0.0774 0.10319,0.10656 0.003,0.0199 8.1e-4,0.0252 -0.0172,0.0435 -0.0115,0.0115 -0.0376,0.0272 -0.0581,0.035 l -0.0371,0.0142 -0.20696,-0.0141 c -0.11383,-0.008 -0.24655,-0.0144 -0.29492,-0.0147 l -0.0879,-5.8e-4 -0.0251,0.0201 c -0.0294,0.0235 -0.0297,0.0236 -0.0378,0.008 -0.0108,-0.0203 0.0129,-0.0421 0.0623,-0.057 0.0396,-0.012 0.0537,-0.0129 0.16211,-0.0102 0.082,0.002 0.15857,0.008 0.24714,0.0205 0.11204,0.0154 0.13352,0.0167 0.16901,0.0107 0.0412,-0.007 0.0834,-0.0311 0.0834,-0.0476 0,-0.0443 -0.12985,-0.11956 -0.24743,-0.14334 -0.10442,-0.0211 -0.19144,-0.005 -0.37134,0.068 -0.11685,0.0476 -0.15017,0.0555 -0.21811,0.0519 -0.0648,-0.003 -0.10783,-0.0223 -0.18775,-0.0825 -0.0723,-0.0545 -0.1257,-0.0802 -0.15669,-0.0752 -0.0357,0.006 -0.0649,0.0412 -0.0844,0.10317 -0.009,0.0281 -0.0154,0.0519 -0.0145,0.0527 8.1e-4,8.1e-4 0.0296,-8.1e-4 0.0636,-0.004 0.0765,-0.006 0.15574,0.002 0.21801,0.0225 0.0996,0.0335 0.1674,0.0784 0.29026,0.19234 0.0806,0.0748 0.0923,0.0835 0.10685,0.0798 0.009,-0.002 0.0902,-0.025 0.18044,-0.0505 0.40018,-0.11328 0.52881,-0.13873 0.7646,-0.15134 0.18094,-0.01 0.34846,0.002 0.42599,0.0292 0.0137,0.005 0.0261,0.007 0.0277,0.006 0.004,-0.004 -0.0768,-0.0867 -0.11328,-0.11489 -0.1538,-0.11865 -0.41813,-0.20624 -0.84111,-0.27871 -0.15836,-0.0272 -0.19896,-0.0389 -0.2501,-0.0725 -0.0457,-0.0301 -0.0652,-0.0557 -0.10676,-0.14085 -0.0383,-0.0782 -0.17014,-0.43243 -0.19174,-0.51488 -0.0223,-0.0851 -0.022,-0.12887 0.002,-0.34284 0.025,-0.21967 0.0263,-0.24513 0.0126,-0.26459 -0.0122,-0.0174 -0.0221,-0.0174 -0.038,1.4e-4 -0.0209,0.023 -0.0256,0.0367 -0.0479,0.13886 -0.0403,0.18529 -0.0761,0.30594 -0.10401,0.35035 l -0.0185,0.0295 0.0146,0.0179 c 0.008,0.01 0.0304,0.037 0.0496,0.0603 0.1619,0.19606 0.24604,0.39301 0.22256,0.52094 -0.0105,0.0574 -0.0399,0.11361 -0.0808,0.1551 -0.0597,0.0604 -0.13533,0.0873 -0.24568,0.0875 -0.1074,1.5e-4 -0.20803,-0.0259 -0.33036,-0.0856 -0.0763,-0.0372 -0.0997,-0.0379 -0.17506,-0.006 -0.0629,0.0272 -0.15222,0.0507 -0.2272,0.0598 -0.0693,0.008 -0.24328,0.008 -0.29925,-4.4e-4 -0.0834,-0.0129 -0.15733,-0.0467 -0.21743,-0.0996 l -0.0243,-0.0213 -0.0398,0.0302 c -0.0484,0.0366 -0.10761,0.067 -0.16493,0.0847 -0.0236,0.007 -0.2119,0.0463 -0.41847,0.0867 -0.20655,0.0404 -0.38461,0.0782 -0.39566,0.0839 -0.0111,0.006 -0.0247,0.0191 -0.0304,0.0298 -0.0144,0.0269 -0.0612,0.0772 -0.0908,0.0972 -0.0315,0.0213 -0.0614,0.0369 -0.19551,0.10137 -0.0879,0.0423 -0.11614,0.0591 -0.1468,0.0875 -0.11175,0.10346 -0.0977,0.23392 0.0391,0.36137 0.0404,0.0377 0.0625,0.0521 0.12955,0.0847 0.17861,0.0869 0.34126,0.13048 0.57303,0.1536 0.0628,0.006 0.26876,0.003 0.32504,-0.005 z m 3.14957,-0.0282 c 0.13616,-0.0371 0.20392,-0.0695 0.28761,-0.1374 0.0469,-0.0381 0.10723,-0.10815 0.10723,-0.12462 0,-0.006 -0.006,-0.0215 -0.0133,-0.0332 l -0.0133,-0.0214 -0.0194,0.0361 c -0.0556,0.10364 -0.12316,0.16999 -0.22545,0.22129 -0.0552,0.0277 -0.15433,0.0623 -0.19906,0.0694 -0.0138,0.002 -0.0267,0.006 -0.0285,0.009 -0.006,0.009 0.009,0.006 0.10405,-0.0196 z m -0.15817,-0.0126 c 0.12674,-0.0173 0.24446,-0.0591 0.33069,-0.11764 0.084,-0.057 0.17357,-0.18647 0.16405,-0.23721 -0.0104,-0.055 -0.1163,-0.15577 -0.21724,-0.20657 -0.13822,-0.0695 -0.3401,-0.0884 -0.52624,-0.0491 -0.15339,0.0324 -0.70061,0.16749 -0.70819,0.17481 -0.005,0.004 0.0949,0.10288 0.16337,0.16194 0.16933,0.1461 0.36256,0.24014 0.5572,0.27118 0.0624,0.01 0.17321,0.0112 0.23636,0.002 z m 0.59325,-0.37725 c 0,-0.0696 -0.006,-0.0899 -0.0428,-0.13311 -0.0187,-0.0222 -0.0184,-0.0247 -0.01,0.08 0.005,0.057 0.01,0.0816 0.022,0.10834 0.0146,0.0317 0.0165,0.0336 0.0232,0.0221 0.004,-0.007 0.007,-0.0383 0.007,-0.0774 z m -0.0958,-0.10735 c -0.0147,-0.0756 -0.0357,-0.0965 -0.12579,-0.12491 -0.0432,-0.0137 -0.15711,-0.0319 -0.16291,-0.0261 -0.002,0.002 0.0138,0.009 0.0343,0.0167 0.0813,0.0304 0.19283,0.10702 0.23702,0.16282 0.0235,0.0297 0.0275,0.0232 0.0174,-0.0285 z m -2.47449,0.0116 c 0.11604,-0.0207 0.2308,-0.10879 0.27242,-0.20916 0.0108,-0.0261 0.0102,-0.0264 -0.0329,-0.0165 -0.0153,0.003 -0.0462,0.009 -0.0688,0.0116 -0.057,0.007 -0.0796,0.0196 -0.14299,0.0788 -0.0594,0.0554 -0.12506,0.0926 -0.19007,0.10746 -0.0408,0.009 -0.0332,0.0159 0.0325,0.0278 0.0574,0.0104 0.0717,0.0104 0.12986,4e-5 z m -0.1252,-0.079 c 0.0226,-0.008 0.0546,-0.023 0.0712,-0.0327 0.0298,-0.0174 0.10142,-0.0838 0.10142,-0.094 0,-0.003 -0.0138,-0.0101 -0.0305,-0.0161 -0.0408,-0.0145 -0.0624,-0.0406 -0.0624,-0.0753 0,-0.0299 0.0184,-0.0592 0.0372,-0.0592 0.0171,0 0.0201,0.01 0.009,0.0305 -0.0184,0.0358 -0.008,0.0558 0.038,0.0718 0.0345,0.0121 0.0422,0.002 0.0422,-0.0546 0,-0.0544 -0.0138,-0.0824 -0.0492,-0.0998 -0.036,-0.0177 -0.066,-0.007 -0.15191,0.0537 -0.0943,0.0667 -0.12998,0.0811 -0.19179,0.0775 -0.044,-0.002 -0.0538,-0.006 -0.15823,-0.0572 -0.0612,-0.0299 -0.12666,-0.0598 -0.14539,-0.0664 -0.11721,-0.0412 -0.24407,-0.0416 -0.42491,-0.002 -0.13471,0.0298 -0.22754,0.0689 -0.23504,0.0988 -0.006,0.022 -4.4e-4,0.0304 0.0264,0.0437 0.022,0.0109 0.0372,0.0117 0.20019,0.0102 0.25771,-0.002 0.28342,0.002 0.53197,0.10518 0.0837,0.0345 0.1689,0.0678 0.18933,0.074 0.0527,0.0159 0.14565,0.012 0.20196,-0.009 z m -1.87223,-0.10279 c 0.0333,-0.0167 0.0884,-0.0424 0.1225,-0.0571 0.10426,-0.0453 0.16687,-0.0886 0.18977,-0.13141 0.008,-0.0149 0.004,-0.0138 -0.1,0.0282 -0.16424,0.0662 -0.22194,0.099 -0.29554,0.1678 -0.0325,0.0304 -0.0697,0.0837 -0.0697,0.0999 0,0.002 0.0208,-0.0146 0.0462,-0.0368 0.0292,-0.0255 0.0685,-0.0514 0.1068,-0.0705 z m -0.24129,-0.0225 c 0.0783,-0.0253 0.0953,-0.0398 0.0695,-0.0593 -0.0153,-0.0116 -0.0497,-0.0159 -0.17622,-0.0222 -0.0961,-0.005 -0.16465,0.004 -0.18969,0.0253 l -0.0163,0.0137 0.0213,0.0226 c 0.0197,0.021 0.0337,0.0272 0.0981,0.0437 0.007,0.002 0.0374,0.002 0.0681,8.1e-4 0.0429,-0.002 0.0717,-0.007 0.12531,-0.0247 z m 5.13404,0.002 c 0.0795,-0.025 0.0973,-0.0419 0.0659,-0.0625 -0.0101,-0.006 -0.0575,-0.0137 -0.1543,-0.023 -0.11953,-0.0114 -0.14221,-0.0121 -0.15719,-0.005 -0.0254,0.0121 -0.0257,0.032 -8e-4,0.0553 0.0286,0.0269 0.0781,0.0487 0.12402,0.0546 0.0438,0.006 0.0421,0.006 0.1225,-0.0194 z m -0.3004,-0.0528 c -0.004,-0.0288 0.007,-0.0513 0.0309,-0.0628 0.01,-0.005 0.0544,-0.0139 0.0988,-0.0203 0.12248,-0.0176 0.15796,-0.0303 0.22504,-0.0805 0.0269,-0.02 0.10658,-0.11 0.10658,-0.12025 0,-0.004 -0.0285,0.0112 -0.0911,0.0482 -0.0838,0.0495 -0.10364,0.0567 -0.15172,0.0546 -0.0476,-0.002 -0.16551,-0.002 -0.28183,8.1e-4 -0.0727,0.002 -0.0828,3e-4 -0.12847,-0.0155 -0.103,-0.0358 -0.15793,-0.0795 -0.17052,-0.13581 l -0.007,-0.034 -0.0374,-0.007 c -0.0906,-0.0178 -0.18433,-0.0636 -0.30969,-0.15097 -0.19396,-0.13532 -0.39167,-0.32987 -0.50043,-0.49244 -0.13481,-0.2015 -0.19701,-0.41671 -0.19701,-0.68158 0,-0.11842 0.009,-0.19822 0.0395,-0.3498 0.0351,-0.174 0.0434,-0.23584 0.043,-0.31884 -5.9e-4,-0.12506 -0.0275,-0.19866 -0.0989,-0.27093 -0.08,-0.0809 -0.20154,-0.11504 -0.35509,-0.0998 -0.14668,0.0146 -0.39944,0.0785 -0.49219,0.1243 -0.0573,0.0284 -0.12688,0.0704 -0.1269,0.0768 -2e-5,0.004 0.0198,0.008 0.0492,0.011 0.15133,0.0126 0.30531,0.0843 0.42575,0.19817 0.10977,0.10379 0.1737,0.21358 0.2059,0.35361 l 0.01,0.0433 0.0434,-0.002 c 0.0795,-0.004 0.13315,0.0204 0.15781,0.0712 0.0136,0.0281 0.0143,0.0358 0.0128,0.13534 -0.004,0.26295 0.0465,0.45208 0.17839,0.66845 0.20687,0.33935 0.66762,0.75028 1.08771,0.97008 0.0844,0.0442 0.224,0.11027 0.23284,0.11027 0.002,0 0.003,-0.0104 0.002,-0.0232 z m -0.46128,-0.17494 c -0.005,-0.003 -0.0534,-0.037 -0.10753,-0.0755 -0.26469,-0.18809 -0.47427,-0.38108 -0.6508,-0.59928 -0.15412,-0.1905 -0.25357,-0.38699 -0.29456,-0.58196 -0.0112,-0.0534 -0.0143,-0.0939 -0.0174,-0.22598 -0.004,-0.18671 -0.007,-0.19942 -0.0564,-0.22443 -0.0331,-0.0169 -0.10486,-0.0199 -0.11732,-0.005 -0.004,0.005 -0.0101,0.0307 -0.0133,0.0572 -0.0112,0.0929 -0.0409,0.16453 -0.0973,0.23466 -0.0602,0.0749 -0.1319,0.11488 -0.22924,0.12791 l -0.0518,0.007 0.003,0.0332 c 0.004,0.0432 0.0337,0.10506 0.0755,0.15974 0.0344,0.045 0.10289,0.11417 0.11299,0.11417 0.0219,0 0.0463,-0.0661 0.0816,-0.22192 0.0428,-0.18837 0.071,-0.27657 0.097,-0.30256 0.02,-0.02 0.0483,-0.0187 0.0704,0.003 0.0378,0.0378 0.0395,0.0917 0.009,0.27069 -0.0244,0.14183 -0.0302,0.26192 -0.0155,0.32146 0.0183,0.0741 0.18279,0.52251 0.21559,0.58758 0.008,0.0167 0.0275,0.0434 0.0425,0.0593 0.0478,0.0511 0.0686,0.0585 0.29218,0.10538 0.35558,0.0744 0.4356,0.0934 0.54634,0.12973 0.0995,0.0326 0.12889,0.0396 0.10508,0.0251 z m -4.71891,-0.0478 c -0.0313,-0.044 -0.0576,-0.0698 -0.0713,-0.0698 -0.0152,0 -0.0306,0.0168 -0.0226,0.0247 0.0182,0.018 0.10522,0.079 0.10928,0.0765 0.002,-0.002 -0.004,-0.0158 -0.0154,-0.0315 z m 5.73753,-0.0492 c 0,-0.008 -0.006,-0.0119 -0.0193,-0.0132 -0.0168,-0.002 -0.0239,0.003 -0.054,0.0365 -0.0191,0.0211 -0.0333,0.0406 -0.0316,0.0433 0.006,0.009 0.10495,-0.0542 0.10495,-0.0666 z m -4.77586,0.0519 c 0.009,-0.007 0.1161,-0.0957 0.23836,-0.19594 0.32084,-0.26302 0.36795,-0.30345 0.45818,-0.39328 0.0924,-0.092 0.16676,-0.18849 0.2119,-0.27505 0.0315,-0.0605 0.0585,-0.12491 0.054,-0.12932 -0.002,-0.002 -0.0256,0.002 -0.054,0.008 -0.13517,0.0267 -0.25958,0.0804 -0.36115,0.1561 -0.0323,0.024 -0.14444,0.12895 -0.2665,0.24924 -0.11593,0.11425 -0.22572,0.22157 -0.24397,0.23849 -0.0713,0.0661 -0.096,0.18321 -0.0678,0.32057 0.004,0.0196 0.009,0.0355 0.0111,0.0354 0.002,-1.2e-4 0.011,-0.006 0.0199,-0.0139 z m 4.24856,-0.004 c 0.013,-0.003 0.0248,-0.007 0.0262,-0.008 0.002,-0.002 -0.0101,-0.0173 -0.0255,-0.0354 -0.0379,-0.0445 -0.0472,-0.0643 -0.0508,-0.10875 -0.003,-0.0456 0.006,-0.0669 0.0472,-0.11024 l 0.0287,-0.0298 -0.0371,0.0163 c -0.0205,0.009 -0.0726,0.0358 -0.11591,0.0598 -0.0893,0.0494 -0.12146,0.0628 -0.17686,0.0737 -0.0481,0.009 -0.0574,0.0217 -0.0392,0.0512 0.0149,0.0241 0.036,0.0403 0.0849,0.0649 0.0816,0.0412 0.1654,0.0499 0.25844,0.0269 z m -4.87878,-0.0118 0.0235,-0.0107 -0.0158,-0.0214 c -0.0212,-0.0286 -0.0368,-0.0721 -0.0585,-0.16315 -0.0185,-0.0776 -0.0357,-0.12817 -0.0434,-0.12817 -0.002,0 -0.0107,0.0324 -0.0185,0.0721 -0.018,0.0912 -0.0149,0.12186 0.0196,0.18891 0.0239,0.0466 0.047,0.0736 0.0627,0.0732 0.004,-8e-5 0.0175,-0.005 0.0304,-0.0108 z m 5.04636,-0.006 c 0.0273,-0.0295 0.0555,-0.0929 0.058,-0.13101 0.002,-0.032 -0.0236,-0.18912 -0.0325,-0.19803 -0.002,-0.002 -0.007,-4.3e-4 -0.01,0.003 -0.006,0.006 -0.013,0.0396 -0.0391,0.18762 -0.006,0.0332 -0.0171,0.0679 -0.0305,0.094 l -0.0212,0.0414 0.0225,0.009 c 0.031,0.0129 0.0353,0.0123 0.0528,-0.006 z m -5.16471,-0.0129 c -0.0268,-0.0586 -0.0558,-0.10487 -0.0847,-0.13545 -0.0253,-0.0268 -0.0353,-0.0332 -0.0513,-0.0332 -0.0184,0 -0.0199,0.002 -0.0198,0.0201 1.3e-4,0.0442 0.0679,0.12616 0.13045,0.15779 0.015,0.007 0.0294,0.0139 0.0317,0.0139 0.002,5e-5 -4.3e-4,-0.0104 -0.006,-0.0231 z m 5.24944,0.004 c 0.054,-0.0276 0.1233,-0.11144 0.1233,-0.14929 0,-0.0159 -0.002,-0.0176 -0.0212,-0.0176 -0.018,0 -0.0262,0.006 -0.056,0.0385 -0.0423,0.0467 -0.092,0.14109 -0.0743,0.14109 0.002,0 0.0145,-0.006 0.0281,-0.0126 z m -5.03421,-0.0404 c 0.0858,-0.0931 0.0598,-0.17505 -0.0725,-0.22815 -0.0247,-0.01 -0.0462,-0.0167 -0.0477,-0.0151 -0.007,0.007 0.0226,0.16454 0.0373,0.19647 0.0167,0.0363 0.0434,0.0751 0.0518,0.0751 0.003,0 0.0168,-0.0127 0.0311,-0.0282 z m 4.86171,-0.009 c 0.0213,-0.0345 0.0337,-0.0855 0.0392,-0.15987 0.005,-0.0678 0.008,-0.0667 -0.0588,-0.0221 -0.062,0.0416 -0.0778,0.0603 -0.0775,0.0915 1.3e-4,0.0142 0.005,0.0361 0.0112,0.0484 0.0146,0.03 0.0532,0.0746 0.062,0.0717 0.004,-0.002 0.0146,-0.0146 0.0239,-0.0297 z m -1.91824,-0.024 c 0.1109,-0.0382 0.18346,-0.13244 0.18332,-0.23818 -7e-5,-0.0419 -0.0202,-0.12391 -0.0427,-0.17341 -0.01,-0.0221 -0.0651,-0.11146 -0.1224,-0.19855 -0.1027,-0.1561 -0.10445,-0.15832 -0.12268,-0.15485 -0.0334,0.006 -0.0361,0.0136 -0.0283,0.0769 0.015,0.1236 -0.0214,0.25585 -0.10189,0.36923 -0.0482,0.0679 -0.13494,0.14356 -0.24231,0.2112 -0.01,0.006 -0.003,0.0112 0.0536,0.038 0.16564,0.0785 0.32244,0.10434 0.42338,0.0696 z m -0.8227,-0.0217 c 0.10385,-0.0183 0.22576,-0.0565 0.24699,-0.0776 0.003,-0.003 -0.003,-0.0125 -0.0154,-0.0223 -0.0533,-0.0427 -0.12788,-0.1251 -0.13856,-0.15304 -0.0505,-0.13241 0.15275,-0.19121 0.26857,-0.0776 0.0142,0.0139 0.0304,0.034 0.036,0.0447 0.0108,0.0207 0.0142,0.0763 0.007,0.1046 -0.002,0.009 -0.002,0.017 7.4e-4,0.017 0.01,0 0.12201,-0.11319 0.14757,-0.14858 0.0677,-0.0937 0.1018,-0.18598 0.10307,-0.27861 4.3e-4,-0.0323 -0.003,-0.0734 -0.007,-0.0913 -0.008,-0.0319 -0.009,-0.0325 -0.0311,-0.0325 -0.0329,0 -0.0909,-0.0163 -0.1263,-0.0357 -0.0601,-0.0327 -0.12409,-0.10962 -0.17802,-0.21392 -0.0118,-0.0227 -0.023,-0.0414 -0.0248,-0.0414 -0.002,-2e-5 -0.01,0.0132 -0.0175,0.0293 -0.0426,0.0886 -0.12572,0.2086 -0.2074,0.29966 -0.0423,0.0472 -0.27182,0.26686 -0.50682,0.48513 -0.0434,0.0404 -0.0789,0.0767 -0.0789,0.0807 0,0.009 0.0453,0.0512 0.0743,0.069 0.0312,0.0191 0.0929,0.0386 0.15421,0.0486 0.066,0.0108 0.21555,0.007 0.29465,-0.006 z m 0.33254,-0.13883 c 0.0321,-0.0357 0.0454,-0.0705 0.0394,-0.10281 -0.01,-0.0509 -0.0973,-0.11455 -0.15788,-0.11455 -0.0376,-1e-5 -0.0782,0.0205 -0.0862,0.0435 -0.0157,0.0451 0.0328,0.11832 0.11463,0.17308 0.0255,0.0171 0.0501,0.0311 0.0547,0.0311 0.005,0 0.0205,-0.0137 0.0354,-0.0302 z m -0.7423,-0.13214 c 0.44847,-0.42832 0.49096,-0.47259 0.57489,-0.5991 0.0237,-0.0357 0.0571,-0.0929 0.0742,-0.12691 0.0277,-0.0552 0.0306,-0.0649 0.0273,-0.0898 -0.006,-0.0403 -0.0333,-0.14989 -0.0399,-0.15648 -0.003,-0.003 -0.01,0.008 -0.0163,0.0275 -0.0382,0.118 -0.0987,0.16912 -0.21042,0.17814 l -0.0433,0.003 -0.0178,0.034 c -0.0417,0.0797 -0.0835,0.13782 -0.23595,0.32813 -0.0887,0.11067 -0.17303,0.21998 -0.18747,0.2429 -0.0631,0.1001 -0.0878,0.19314 -0.0692,0.26013 0.003,0.0128 0.008,0.0232 0.01,0.0232 0.002,0 0.0622,-0.0564 0.13436,-0.12527 z m -1.00074,-0.13336 c 0.0517,-0.0501 0.14221,-0.13874 0.20121,-0.19689 0.19184,-0.18904 0.2702,-0.23342 0.51899,-0.29385 0.0863,-0.0209 0.0887,-0.0243 0.098,-0.13287 0.0163,-0.19006 0.0163,-0.19627 0.002,-0.21513 -0.0114,-0.0144 -0.0182,-0.0171 -0.0436,-0.0171 -0.0408,0 -0.11737,0.0281 -0.17708,0.0649 -0.12632,0.0778 -0.34533,0.3386 -0.57932,0.68977 -0.10685,0.16036 -0.12674,0.19273 -0.11825,0.19248 0.002,-8e-5 0.0471,-0.0412 0.0987,-0.0913 z m 2.0389,-0.35721 c 0,-0.005 -0.0251,-0.062 -0.0559,-0.12647 -0.0347,-0.0729 -0.0607,-0.1369 -0.0687,-0.16889 -0.007,-0.0283 -0.016,-0.0547 -0.0199,-0.0588 -0.007,-0.007 -0.13334,-0.0484 -0.13676,-0.0445 -0.0122,0.0139 -0.0244,0.0533 -0.0267,0.0857 -0.002,0.038 -0.002,0.0431 0.0235,0.0898 0.0743,0.13992 0.13279,0.198 0.22417,0.2226 0.0431,0.0117 0.0603,0.0117 0.0603,4.5e-4 z m 0.0557,-0.0183 c 0,-0.0104 -0.0294,-0.0469 -0.0379,-0.0469 -0.006,0 0.008,0.0325 0.0208,0.048 0.008,0.0104 0.0171,0.01 0.0171,-8e-4 z m -1.21145,-0.21055 c 0.0114,-0.0213 0.0135,-0.0353 0.0135,-0.0902 0,-0.0554 -0.002,-0.0687 -0.0137,-0.0898 -0.007,-0.0136 -0.0138,-0.0206 -0.014,-0.0155 -1.5e-4,0.005 -0.005,0.0552 -0.01,0.11144 -0.0117,0.1312 -0.0117,0.12738 4.3e-4,0.11726 0.006,-0.005 0.0158,-0.0194 0.0232,-0.0332 z m 0.58947,-0.0943 c 0.0419,-0.0142 0.0839,-0.0575 0.10143,-0.10431 0.0129,-0.0346 0.0136,-0.0443 0.0116,-0.18536 -0.002,-0.17032 -0.006,-0.18573 -0.058,-0.25411 -0.0641,-0.0841 -0.0861,-0.14902 -0.0853,-0.25074 5.8e-4,-0.0839 0.0171,-0.1448 0.0571,-0.21063 0.0134,-0.0221 0.0237,-0.0408 0.023,-0.0416 -0.004,-0.004 -0.0806,0.0201 -0.1181,0.0379 -0.20898,0.0992 -0.36058,0.38425 -0.33151,0.62326 0.004,0.0319 0.008,0.0589 0.009,0.06 8e-4,8.1e-4 0.0142,-8.1e-4 0.0291,-0.004 0.015,-0.003 0.0441,-0.006 0.0649,-0.006 0.0737,-2.9e-4 0.15291,0.0581 0.18278,0.13481 0.0112,0.0288 0.0142,0.0516 0.0165,0.12352 l 0.002,0.0882 h 0.0323 c 0.0177,0 0.0459,-0.005 0.0625,-0.0104 z m -0.13066,-0.0416 c 0.0109,-0.0691 -0.0133,-0.15273 -0.0594,-0.20523 -0.0409,-0.0466 -0.10938,-0.0644 -0.1736,-0.0451 -0.0218,0.006 -0.0239,0.009 -0.0205,0.0232 0.002,0.009 0.0179,0.0451 0.0353,0.0809 0.0251,0.0517 0.0398,0.0733 0.0725,0.10593 0.0418,0.0418 0.1052,0.0806 0.12759,0.0781 0.01,-8.1e-4 0.0135,-0.008 0.0181,-0.0378 z m 0.73926,-0.0569 c 0.11519,-0.0569 0.2115,-0.1997 0.2115,-0.31351 0,-0.0351 -0.006,-0.0367 -0.058,-0.0171 -0.12428,0.0465 -0.26977,0.2077 -0.28578,0.31665 -0.006,0.0409 -0.002,0.0443 0.0449,0.0406 0.0293,-0.002 0.0526,-0.009 0.0874,-0.0266 z m -0.15937,-0.0451 c 0.0563,-0.15021 0.13237,-0.23386 0.27964,-0.30758 0.0806,-0.0403 0.085,-0.0435 0.085,-0.0602 0,-0.0237 -0.026,-0.1006 -0.0508,-0.15004 -0.0704,-0.14078 -0.17391,-0.24978 -0.30182,-0.31793 -0.0979,-0.0522 -0.27353,-0.0962 -0.32666,-0.0819 -0.067,0.018 -0.13145,0.14728 -0.13169,0.26384 -1.5e-4,0.0756 0.0284,0.1571 0.0817,0.23312 l 0.0264,0.0378 0.008,-0.0303 c 0.0249,-0.0933 0.0326,-0.11316 0.045,-0.11709 0.007,-0.002 0.0187,-4e-5 0.0268,0.006 0.009,0.006 0.0172,0.007 0.0229,0.004 0.0178,-0.0112 0.0367,-0.006 0.0438,0.0112 0.0103,0.0258 0.0483,0.29258 0.0526,0.37011 0.002,0.0431 8.1e-4,0.084 -0.003,0.11091 -0.007,0.0387 -0.007,0.0436 0.004,0.0536 0.0137,0.0134 0.0873,0.0425 0.10316,0.0408 0.009,-8.1e-4 0.0176,-0.0176 0.0355,-0.0654 z m -0.2006,-0.0721 c -0.007,-0.0549 -0.009,-0.0594 -0.0169,-0.0463 -0.0109,0.0173 -0.006,0.0652 0.007,0.0829 0.007,0.009 0.0138,0.0158 0.0146,0.0148 8.1e-4,-8e-4 -0.002,-0.0242 -0.005,-0.0514 z m -0.0513,-0.0816 c 0.0129,-0.038 0.0125,-0.0532 -0.002,-0.0709 l -0.0122,-0.0146 -1.5e-4,0.0475 c -1.1e-4,0.0261 -0.002,0.0519 -0.004,0.0573 -0.002,0.006 -8.1e-4,0.01 0.002,0.01 0.003,0 0.0108,-0.013 0.0162,-0.029 z m 0.058,-0.12858 c -0.007,-0.072 -0.0143,-0.0733 -0.0209,-0.004 -0.002,0.0281 -8.1e-4,0.0383 0.01,0.0553 0.007,0.0115 0.0142,0.0197 0.0155,0.0184 0.002,-0.002 -7.3e-4,-0.0327 -0.004,-0.0699 z m -0.0857,-0.11254 c -2.9e-4,-0.0326 -0.002,-0.0438 -0.006,-0.035 -0.01,0.0241 -0.01,0.083 -1.5e-4,0.083 0.004,0 0.007,-0.0199 0.006,-0.048 z m 0.0128,-1.41042 c -0.1163,-0.0251 -0.22827,-0.12968 -0.29784,-0.27814 -0.0714,-0.15231 -0.0792,-0.35878 -0.0188,-0.49939 0.0506,-0.11806 0.15551,-0.21072 0.26867,-0.2374 0.0458,-0.0108 0.16329,-0.0122 0.21022,-0.002 0.018,0.004 0.0564,0.018 0.0852,0.0318 0.10321,0.0493 0.19411,0.16411 0.22868,0.28883 0.0266,0.096 0.0226,0.22749 -0.01,0.332 -0.033,0.10558 -0.10873,0.22182 -0.18715,0.28708 -0.0477,0.0397 -0.11568,0.0725 -0.16754,0.0809 -0.05,0.008 -0.0612,0.008 -0.11144,-0.003 z m 0.17434,-0.0538 c 0.16194,-0.0803 0.28409,-0.2976 0.28434,-0.50577 1.1e-4,-0.0961 -0.0228,-0.17218 -0.0758,-0.25135 -0.0847,-0.12657 -0.20108,-0.18788 -0.34265,-0.18046 -0.17725,0.009 -0.29513,0.1072 -0.34475,0.28632 -0.0117,0.042 -0.0137,0.0654 -0.0139,0.1606 -2.9e-4,0.11039 -1e-4,0.112 0.0201,0.17026 0.0347,0.0999 0.0919,0.19017 0.16373,0.25808 0.0695,0.0658 0.12804,0.09 0.20988,0.0869 0.047,-0.002 0.0593,-0.005 0.0991,-0.0246 z"
       id="path5112"
       sodipodi:nodetypes="ccccssccccccscccsscccscssccccsccsccssccccccsssccccssccssssssccccsccccssscssccccsccscccccscsccsccscssscsssccscccsscscsccssccccscsccssccssccscccccscsscscsssscccccsccccscccsccscccscsssccsccccccsscccsssccssssscscccssccscccsccscccsccssccssccccscccccscsccccscccccssccccscscscscssccscscccscccssccscscsccccscscscccccccscscscsscccccssccsccccccscsccsscccscccccscscssscscccscccccscssscssccccsccsccccsccsssssscssccscccccccccsccccscsscccccccsscssccscssccsssssccccssccscscccsscscscsccccccsscccsscssscssssccsssccccccccccccscccccsssscsccccsccccccccssccccccssssccsccsssscccscccccsssccscccccsccsscssscsccscssscccccssscscccsccscccssscscccssscscsscccsccccccccsscsscscscccccssccsccccscsccscccsccssccccsccccccssssssccscccssccccccscccccccccsccccccccccsccssccccscscsscsssssscccc"
       inkscape:export-filename="separator3.svg"
       inkscape:export-xdpi="96"
       inkscape:export-ydpi="96" /><path
       style="fill:#000000;fill-opacity:0;stroke:#000000;stroke-width:0.18581;stroke-linecap:round;stroke-linejoin:round;marker-start:url(#Club);marker-end:url(#Arrow5-6);paint-order:fill markers stroke"
       d="m 111.72612,122.09325 38.88794,-0.0573"
       id="path5168-91"
       sodipodi:nodetypes="cc" /><path
       style="fill:#000000;fill-opacity:0;stroke:#000000;stroke-width:0.18581;stroke-linecap:round;stroke-linejoin:round;marker-start:url(#Club-9);marker-end:url(#Arrow5-6-5);paint-order:fill markers stroke"
       d="m 100.65191,121.96282 -38.887946,-0.0573"
       id="path5168-91-6"
       sodipodi:nodetypes="cc" /></g></svg>
