<?xml version="1.0" encoding="UTF-8" standalone="no"?>
<!-- Created with Inkscape (http://www.inkscape.org/) -->

<svg
   width="85.913643mm"
   height="1.9029236mm"
   viewBox="0 0 85.913643 1.9029236"
   version="1.1"
   id="svg349"
   xml:space="preserve"
   xmlns:inkscape="http://www.inkscape.org/namespaces/inkscape"
   xmlns:sodipodi="http://sodipodi.sourceforge.net/DTD/sodipodi-0.dtd"
   xmlns="http://www.w3.org/2000/svg"
   xmlns:svg="http://www.w3.org/2000/svg"><sodipodi:namedview
     id="namedview351"
     pagecolor="#ffffff"
     bordercolor="#000000"
     borderopacity="0.25"
     inkscape:showpageshadow="2"
     inkscape:pageopacity="0.0"
     inkscape:pagecheckerboard="0"
     inkscape:deskcolor="#d1d1d1"
     inkscape:document-units="mm"
     showgrid="false" /><defs
     id="defs346"><marker
       style="overflow:visible"
       id="Arrow5"
       refX="-4"
       refY="0"
       orient="auto-start-reverse"
       inkscape:stockid="Arrow5"
       markerWidth="5.8874264"
       markerHeight="6.6094756"
       viewBox="0 0 5.8874262 6.6094758"
       inkscape:isstock="true"
       inkscape:collect="always"
       preserveAspectRatio="xMidYMid"><path
         transform="scale(0.5)"
         style="fill:context-stroke;fill-rule:evenodd;stroke:context-stroke;stroke-width:1pt"
         d="m 6,0 c -3,1 -7,3 -9,5 0,0 0,-4 2,-5 -2,-1 -2,-5 -2,-5 2,2 6,4 9,5 z"
         id="path8893" /></marker><marker
       style="overflow:visible"
       id="Arrow5-0"
       refX="-4"
       refY="0"
       orient="auto-start-reverse"
       inkscape:stockid="Arrow5"
       markerWidth="5.8874264"
       markerHeight="6.6094756"
       viewBox="0 0 5.8874262 6.6094758"
       inkscape:isstock="true"
       inkscape:collect="always"
       preserveAspectRatio="xMidYMid"><path
         transform="scale(0.5)"
         style="fill:context-stroke;fill-rule:evenodd;stroke:context-stroke;stroke-width:1pt"
         d="m 6,0 c -3,1 -7,3 -9,5 0,0 0,-4 2,-5 -2,-1 -2,-5 -2,-5 2,2 6,4 9,5 z"
         id="path8893-1" /></marker></defs><g
     inkscape:label="Layer 1"
     inkscape:groupmode="layer"
     id="layer1"
     transform="translate(-63.393747,-107.8406)"><path
       id="path356"
       style="display:inline;fill:#000000;stroke:#000000;stroke-width:0.0103987;stroke-linecap:round;stroke-linejoin:round;paint-order:fill markers stroke"
       d="m 104.7302,107.84606 c -0.0652,1.1e-4 -0.12963,0.007 -0.1893,0.0241 -0.12475,0.0348 -0.21382,0.11091 -0.26157,0.20296 -0.0748,0.14433 -0.0629,0.31079 -0.0405,0.32946 h -0.20513 l -0.01,0.27669 h 0.21467 l 0.01,1.05905 h 0.23851 l -0.005,-1.05905 h 0.7919 v 0.21944 l -0.46275,-0.01 c 0,0 -0.1214,0.0602 -0.14784,0.11726 -0.0298,0.0642 -0.0257,0.14942 0.007,0.21226 0.0321,0.0619 0.0981,0.11562 0.16703,0.12594 0.0436,0.007 0.12421,-0.0452 0.12421,-0.0452 v -0.19082 h 0.31246 v 0.6297 h 0.23375 v -1.05904 h 0.86346 v 0.53429 c 0,0 -0.0908,0.0914 -0.15641,0.10038 -0.0656,0.009 -0.16481,-0.0191 -0.20196,-0.0619 -0.0371,-0.0428 -0.0349,-0.082 -0.02,-0.12721 0.0148,-0.0452 0.068,-0.0876 0.11152,-0.11038 0.0436,-0.0228 0.13571,-0.0251 0.13571,-0.0251 l 0.01,-0.19559 c 0.003,-0.006 -0.16419,-0.0115 -0.24045,0.0137 -0.0696,0.0229 -0.14128,0.0608 -0.18401,0.12033 -0.0568,0.0793 -0.0854,0.18653 -0.0733,0.28332 0.0108,0.0861 0.0475,0.16683 0.12533,0.22815 0.0778,0.0613 0.23574,0.0933 0.3222,0.088 0.0865,-0.005 0.17191,-0.0704 0.17191,-0.0704 v 0.28144 h 0.22421 v -1.05904 h 0.30055 v 1.05904 h 0.25759 v -1.05904 h 0.28146 v 0.54383 c -0.007,0.0282 0.0572,0.13479 0.10633,0.17372 0.0648,0.0514 0.15237,0.0759 0.23499,0.0796 0.0888,0.004 0.18437,-0.0145 0.25915,-0.0625 0.0596,-0.0383 0.13438,-0.17695 0.12465,-0.19076 v -0.54383 h 0.23852 v 1.05904 h 0.22898 v -1.05904 h 0.2099 v -0.27669 h -1.68398 c 0,0 -0.0871,-0.0461 -0.10749,-0.0875 -0.0207,-0.042 -0.026,-0.0994 -0.003,-0.14049 0.019,-0.0347 0.0626,-0.0554 0.10178,-0.0613 0.0412,-0.006 0.1214,0.0296 0.1214,0.0296 l 0.0646,-0.16272 c -0.0708,-0.034 -0.13884,-0.06 -0.2119,-0.0568 -0.0747,0.003 -0.15462,0.0272 -0.21075,0.0766 -0.0528,0.0464 -0.0845,0.11816 -0.0968,0.18738 -0.008,0.0467 -3e-5,0.0973 0.0178,0.14127 0.0116,0.0286 0.0375,0.0531 0.0555,0.0741 h -2.40204 c -0.0122,0.003 -0.0161,-0.11739 0.0254,-0.19753 0.0343,-0.0662 0.11026,-0.10604 0.17959,-0.13374 0.10989,-0.0439 0.24222,0.001 0.35208,0.0454 0.11211,0.0448 0.29208,0.21433 0.29208,0.21433 l 0.13554,-0.12149 c 0.008,-0.0312 -0.0898,-0.17154 -0.31035,-0.27228 -0.11254,-0.0514 -0.27179,-0.0914 -0.42629,-0.0912 z m 2.921,0.8381 h 0.28767 l -0.007,0.53415 c 10e-4,6.7e-4 -0.0216,0.0479 -0.0426,0.0612 -0.0271,0.0172 -0.0629,0.016 -0.095,0.0157 -0.0239,-2.3e-4 -0.0493,-0.003 -0.0706,-0.0134 -0.0279,-0.0145 -0.0675,-0.0631 -0.0675,-0.0659 z"
       sodipodi:nodetypes="sssccccccccccsssccccccccssscccsssssccccccccccssscccccccccsssccssssccsssccsscccaaasc"
       inkscape:export-filename="separator2.svg"
       inkscape:export-xdpi="96"
       inkscape:export-ydpi="96" /><path
       style="fill:#000000;fill-opacity:0;stroke:#000000;stroke-width:0.184058;stroke-linecap:round;stroke-linejoin:round;marker-end:url(#Arrow5);paint-order:fill markers stroke"
       d="m 109.30381,108.91207 38.52116,-0.0567"
       id="path5168"
       sodipodi:nodetypes="cc" /><path
       style="fill:#000000;fill-opacity:0;stroke:#000000;stroke-width:0.184058;stroke-linecap:round;stroke-linejoin:round;marker-end:url(#Arrow5-0);paint-order:fill markers stroke"
       d="m 103.39733,108.84935 -38.521164,-0.0567"
       id="path5168-7"
       sodipodi:nodetypes="cc" /></g></svg>
